# xmcd CD Database Entry
#
# Track frame offsets:
# 150
# 12433
# 22342
# 40073
# 59574
# 68800
# 78360
# 93252
# 100022
# 118091
# 127799
# 139023
# 156857
# 172838
# 184984
# 208677
# 226461
#
# Disc length: 3160 seconds
#
# Revision: 2
# Processed by: cddbd v1.4b41PL1 Copyright (c) Steve Scherf et al.
# Submitted via: tcd 2.0b
#
DISCID=e20c5611
DTITLE=All of the Above - Better Late Than Never
DYEAR=1900
DGENRE=
TTITLE0=Good Ol' A Capella
TTITLE1=Blue Skies
TTITLE2=Seven
TTITLE3=Verdi Cries
TTITLE4=River
TTITLE5=House on Pooh Corner
TTITLE6=Sunny Came Home
TTITLE7=Here, There, and Everywhere (Squirrels)
TTITLE8=Nightswimming
TTITLE9=Joy to the World
TTITLE10=Shenandoah
TTITLE11=New James Bond
TTITLE12=Africa
TTITLE13=Shut De Do
TTITLE14=TV Theme Songs
TTITLE15=Train in Vain
TTITLE16=Lean On Me
EXTD=
EXTT0=
EXTT1=
EXTT2=
EXTT3=
EXTT4=
EXTT5=
EXTT6=
EXTT7=
EXTT8=
EXTT9=
EXTT10=
EXTT11=
EXTT12=
EXTT13=
EXTT14=
EXTT15=
EXTT16=
PLAYORDER=
